<svg xmlns="http://www.w3.org/2000/svg" xmlns:xlink="http://www.w3.org/1999/xlink" width="500" zoomAndPan="magnify" viewBox="0 0 375 374.999991" height="500" preserveAspectRatio="xMidYMid meet" version="1.0"><path fill="#ffac3e" d="M 50.753906 308.417969 C 50.542969 308.417969 50.332031 308.359375 50.148438 308.242188 C 49.820312 308.042969 49.617188 307.691406 49.605469 307.304688 C 49.445312 302.609375 49.871094 297.988281 50.359375 293.695312 C 50.578125 291.722656 50.691406 289.667969 50.796875 287.683594 C 51.066406 282.617188 51.347656 277.382812 53.460938 272.507812 C 55.375 268.089844 58.835938 265.65625 63.203125 265.65625 C 67.289062 265.65625 71.832031 267.867188 75.058594 271.417969 C 78.5 275.207031 79.808594 280.398438 81.078125 285.421875 C 81.519531 287.171875 81.9375 288.824219 82.4375 290.378906 C 82.992188 292.148438 83.675781 293.792969 84.472656 295.285156 C 84.628906 295.578125 84.652344 295.921875 84.535156 296.230469 C 84.417969 296.539062 84.175781 296.785156 83.867188 296.902344 C 77.664062 299.261719 71.894531 301.269531 66.222656 303.035156 L 64.652344 303.523438 C 60.160156 304.917969 55.519531 306.359375 51.230469 308.3125 C 51.078125 308.382812 50.914062 308.417969 50.753906 308.417969 Z M 117.691406 282.871094 C 117.507812 282.871094 117.328125 282.828125 117.160156 282.742188 C 116.859375 282.582031 116.640625 282.300781 116.566406 281.96875 C 115.75 278.292969 114.476562 274.546875 113.246094 270.929688 C 110.859375 263.894531 108.386719 256.621094 108.890625 249.066406 C 108.902344 248.949219 108.925781 248.832031 108.96875 248.71875 C 111.332031 242.722656 120.390625 238.542969 127.039062 238.542969 C 130.179688 238.542969 132.734375 239.417969 134.425781 241.070312 C 138.164062 244.738281 138.191406 252.105469 138.214844 258.027344 C 138.222656 259.976562 138.230469 261.820312 138.367188 263.269531 C 138.652344 266.171875 139.410156 269.121094 140.683594 272.277344 C 140.917969 272.867188 140.636719 273.535156 140.050781 273.773438 L 136.679688 275.152344 C 130.488281 277.683594 124.300781 280.210938 118.132812 282.78125 C 117.992188 282.839844 117.839844 282.871094 117.691406 282.871094 Z M 174.332031 259.441406 C 174.164062 259.441406 173.992188 259.402344 173.835938 259.332031 C 173.539062 259.1875 173.3125 258.921875 173.222656 258.605469 C 171.539062 252.667969 170.816406 247.222656 171.019531 241.957031 C 171.457031 230.371094 178.707031 220.6875 193.183594 212.359375 C 196.84375 210.257812 199.707031 208.738281 202.46875 207.425781 C 202.519531 207.394531 202.558594 207.375 202.613281 207.347656 C 208.925781 204.5 215.484375 201.964844 221.828125 199.507812 C 226.027344 197.886719 230.367188 196.207031 234.582031 194.457031 C 241.125 191.746094 247.542969 188.472656 253.753906 185.308594 C 258.613281 182.828125 263.644531 180.265625 268.722656 177.972656 C 278.960938 173.347656 289.621094 169.265625 299.933594 165.316406 C 302.652344 164.277344 305.375 163.234375 308.085938 162.183594 C 314.167969 159.832031 320.367188 157.109375 323.488281 152.011719 C 323.636719 151.769531 323.871094 151.589844 324.144531 151.507812 C 324.394531 151.433594 324.589844 151.257812 324.738281 150.96875 C 325.304688 149.941406 325.457031 148.90625 325.226562 147.691406 C 325.214844 147.621094 325.207031 147.550781 325.207031 147.480469 C 325.203125 147.273438 325.15625 147.09375 325.082031 146.949219 C 325.054688 146.894531 325.027344 146.835938 325.007812 146.777344 C 324.484375 145.160156 323.40625 143.460938 322.359375 141.816406 C 320.941406 139.574219 319.472656 137.257812 319.199219 134.882812 C 319.171875 134.652344 319.109375 134.472656 319 134.296875 C 318.863281 134.082031 318.804688 133.828125 318.828125 133.578125 C 318.949219 132.257812 319.070312 131.160156 319.121094 130.703125 C 319.710938 124.863281 322.15625 119.375 326.015625 115.203125 C 330.015625 110.898438 336.402344 108.527344 344.011719 108.527344 C 349.300781 108.527344 354.707031 109.753906 358.839844 111.890625 C 360.648438 112.832031 362.175781 114.085938 363.371094 115.625 C 363.527344 115.816406 363.703125 116.042969 363.859375 116.28125 C 369.59375 124.527344 365.917969 138.578125 364.152344 145.332031 C 360.785156 158.3125 351.789062 167.699219 342.570312 175.910156 C 342.375 176.082031 342.289062 176.242188 342.25 176.347656 C 342.160156 176.589844 341.992188 176.792969 341.773438 176.929688 C 340.582031 177.664062 339.328125 178.347656 338.121094 179.007812 C 337.484375 179.355469 336.859375 179.695312 336.261719 180.035156 C 330.230469 183.480469 324.09375 186.707031 317.808594 189.984375 C 299.90625 199.335938 281.703125 208.339844 266.046875 216.050781 C 261.578125 218.25 257.113281 220.460938 252.644531 222.671875 C 229.605469 234.074219 205.78125 245.863281 181.839844 256.308594 C 179.492188 257.335938 177.140625 258.351562 174.78125 259.355469 C 174.636719 259.414062 174.484375 259.441406 174.332031 259.441406 Z M 314.726562 140.273438 C 314.582031 140.273438 314.433594 140.246094 314.292969 140.191406 C 313.332031 139.800781 312.292969 139.445312 311.292969 139.105469 C 309.535156 138.503906 307.71875 137.882812 306.152344 137.027344 C 301.359375 134.398438 297.546875 132.042969 294.167969 129.621094 C 289.550781 126.308594 285.890625 122.675781 283.300781 118.824219 C 280.382812 114.5 280.339844 109.898438 280.972656 105.320312 C 279.808594 107.449219 278.769531 109.738281 278.359375 111.980469 C 278.292969 112.332031 278.066406 112.632812 277.75 112.796875 C 277.585938 112.878906 277.40625 112.921875 277.226562 112.921875 C 277.117188 112.921875 277.007812 112.90625 276.902344 112.875 C 275.949219 112.738281 274.90625 112.675781 273.632812 112.675781 C 272.875 112.675781 272.125 112.695312 271.371094 112.714844 C 270.59375 112.738281 269.820312 112.761719 269.042969 112.761719 C 267.230469 112.761719 265.824219 112.640625 264.476562 112.371094 C 260.230469 111.527344 255.65625 109.003906 250.878906 104.875 C 243.34375 98.367188 241.054688 89.777344 244.394531 81.914062 C 241.417969 85.335938 240.160156 89.3125 240.742188 93.609375 C 240.789062 93.984375 240.652344 94.359375 240.375 94.613281 C 240.160156 94.808594 239.882812 94.914062 239.597656 94.914062 C 239.511719 94.914062 239.425781 94.90625 239.339844 94.882812 C 238.472656 94.683594 237.515625 94.589844 236.320312 94.589844 C 235.414062 94.589844 234.5 94.644531 233.535156 94.699219 C 232.570312 94.753906 231.570312 94.8125 230.578125 94.8125 C 229.871094 94.8125 229.238281 94.785156 228.640625 94.726562 C 223.609375 94.21875 218.507812 92.484375 213.472656 89.570312 C 208.105469 86.460938 203.886719 81.773438 201.269531 76.011719 C 201.203125 75.863281 201.167969 75.699219 201.167969 75.535156 C 201.167969 75.53125 201.167969 75.523438 201.167969 75.511719 C 201.046875 75.398438 200.925781 75.230469 200.863281 75.082031 C 199.613281 72.082031 198.824219 68.914062 198.5 65.636719 C 197.535156 68.824219 197.394531 72.0625 198.089844 75.292969 C 198.207031 75.832031 197.925781 76.375 197.421875 76.59375 C 196.78125 76.867188 196.148438 77.175781 195.511719 77.476562 C 193.9375 78.234375 192.304688 79.015625 190.503906 79.441406 C 189.007812 79.792969 187.390625 79.972656 185.699219 79.972656 C 182.402344 79.972656 178.722656 79.300781 174.769531 77.972656 C 165.378906 74.804688 159.097656 68.015625 157.503906 59.664062 C 157.273438 61.304688 157.332031 62.96875 157.671875 64.636719 C 157.742188 64.972656 157.65625 65.324219 157.441406 65.589844 C 157.226562 65.859375 156.902344 66.015625 156.558594 66.019531 C 154.679688 66.042969 152.773438 66.53125 150.753906 67.054688 C 148.789062 67.558594 146.757812 68.082031 144.664062 68.171875 C 144.425781 68.179688 144.191406 68.1875 143.953125 68.1875 C 139.515625 68.1875 134.832031 66.492188 131.101562 63.539062 C 130.945312 63.414062 130.820312 63.253906 130.75 63.070312 C 130.578125 62.65625 130.199219 62.3125 129.773438 62.191406 C 129.578125 62.136719 129.402344 62.03125 129.269531 61.890625 C 129.253906 61.875 129.242188 61.863281 129.226562 61.847656 C 125.792969 58.070312 125.378906 52.515625 128.125 46.992188 C 132.355469 38.507812 141.164062 33.238281 151.117188 33.238281 C 153.402344 33.238281 155.6875 33.515625 157.914062 34.0625 C 158.25 34.148438 158.53125 34.375 158.675781 34.6875 C 158.828125 35 158.828125 35.363281 158.679688 35.675781 C 158.117188 36.859375 157.804688 38.078125 157.742188 39.3125 C 162.820312 32.015625 169.789062 29.292969 176.621094 27.476562 C 179.984375 26.589844 183.566406 26.140625 187.277344 26.140625 C 187.609375 26.140625 187.941406 26.144531 188.273438 26.148438 C 190.429688 26.1875 192.625 26.78125 194.75 27.355469 C 196.066406 27.710938 197.429688 28.082031 198.71875 28.292969 C 199.121094 28.359375 199.457031 28.632812 199.601562 29.011719 C 199.75 29.386719 199.691406 29.816406 199.441406 30.136719 C 197.867188 32.160156 196.863281 34.257812 196.496094 36.164062 C 199.210938 31.296875 205.773438 28.082031 210.324219 26.964844 C 212.613281 26.40625 215.125 26.132812 218 26.132812 C 221.78125 26.132812 225.558594 26.605469 229.078125 27.117188 C 234.734375 27.921875 240.40625 29.359375 245.933594 31.386719 C 249.90625 32.84375 252.894531 35.046875 255.335938 38.328125 C 255.929688 39.121094 256.390625 39.878906 256.832031 40.613281 C 257.390625 41.535156 257.917969 42.40625 258.617188 43.15625 C 258.847656 43.410156 258.957031 43.75 258.914062 44.089844 C 258.867188 44.425781 258.675781 44.730469 258.386719 44.914062 C 256.867188 45.878906 255.464844 47.011719 254.199219 48.300781 C 259.398438 45.371094 265.679688 43.886719 272.941406 43.886719 C 278.292969 43.886719 284.125 44.738281 289.8125 46.355469 C 295.75 48.039062 301.519531 50.78125 306.964844 54.5 C 309.6875 56.34375 312.074219 58.632812 314.691406 61.210938 C 317.867188 64.308594 318.703125 67.199219 319.667969 70.546875 C 319.902344 71.355469 320.148438 72.203125 320.441406 73.097656 C 320.601562 73.414062 320.613281 73.789062 320.460938 74.117188 C 320.28125 74.503906 319.902344 74.757812 319.472656 74.78125 C 314.355469 75.03125 309.726562 76.371094 305.683594 78.769531 C 306.945312 78.734375 308.191406 78.691406 309.425781 78.652344 C 312.097656 78.5625 314.625 78.476562 317.171875 78.476562 C 324.726562 78.476562 332.890625 79.148438 341.386719 84.023438 C 348.339844 88.027344 353.714844 93.941406 357.621094 98.644531 C 360.492188 102.105469 362.453125 104.976562 363.984375 107.960938 C 364.570312 109.097656 364.855469 110.226562 365.074219 111.273438 C 365.175781 111.769531 364.941406 112.273438 364.5 112.519531 C 364.328125 112.613281 364.136719 112.660156 363.945312 112.660156 C 363.65625 112.660156 363.367188 112.550781 363.144531 112.335938 C 360.882812 110.140625 357.9375 108.484375 354.390625 107.425781 C 351.222656 106.472656 347.921875 105.988281 344.585938 105.988281 C 334.382812 105.988281 325.433594 110.523438 320.644531 118.121094 C 318.8125 121.027344 315.105469 131.929688 315.871094 139.003906 C 315.914062 139.40625 315.742188 139.804688 315.417969 140.046875 C 315.214844 140.195312 314.972656 140.273438 314.726562 140.273438 Z M 314.726562 140.273438 " fill-opacity="1" fill-rule="nonzero"/><path fill="#ffd939" d="M 37.035156 349.957031 C 35.238281 349.957031 33.382812 349.695312 31.523438 349.175781 C 21.898438 346.484375 18.894531 335.90625 16.246094 326.574219 C 15.34375 323.394531 14.488281 320.390625 13.4375 317.9375 C 12.738281 316.292969 11.960938 314.632812 11.210938 313.023438 C 8.851562 307.976562 6.410156 302.761719 5.738281 296.996094 C 5.269531 293.003906 6.476562 289.328125 7.640625 285.777344 C 8.773438 282.324219 9.84375 279.058594 9.476562 275.542969 C 9.449219 275.308594 9.386719 275.113281 9.285156 274.960938 C 9.15625 274.769531 9.089844 274.546875 9.089844 274.320312 C 9.078125 273.121094 9.019531 271.9375 8.960938 270.738281 L 8.929688 270.058594 C 8.691406 265.121094 10.496094 260.65625 12.082031 256.722656 C 12.445312 255.820312 12.8125 254.925781 13.179688 254.027344 C 14.003906 252.019531 14.855469 249.949219 15.601562 247.878906 C 16 246.75 16.402344 245.621094 16.796875 244.488281 C 17.535156 242.394531 18.269531 240.300781 19.042969 238.214844 C 24.199219 224.136719 30.230469 210.027344 37.480469 195.085938 C 61.113281 146.363281 91.5625 103.1875 127.976562 66.757812 C 128.199219 66.535156 128.496094 66.421875 128.792969 66.421875 C 129.039062 66.421875 129.285156 66.5 129.496094 66.660156 C 132.738281 69.171875 136.917969 70.875 140.964844 71.332031 C 142.484375 71.503906 144.007812 71.589844 145.496094 71.589844 C 149.207031 71.589844 154.269531 71.039062 157.3125 68.402344 C 157.523438 68.222656 157.792969 68.125 158.066406 68.125 C 158.140625 68.125 158.21875 68.132812 158.296875 68.148438 C 158.648438 68.21875 158.941406 68.449219 159.097656 68.769531 C 161.328125 73.324219 165.5625 77.394531 170.710938 79.933594 C 175.15625 82.125 180.148438 83.238281 185.558594 83.238281 C 186.765625 83.238281 188 83.179688 189.226562 83.066406 C 190.929688 82.902344 195.230469 82.289062 198.28125 80.109375 C 198.476562 79.96875 198.710938 79.894531 198.949219 79.894531 C 199.039062 79.894531 199.132812 79.90625 199.222656 79.929688 C 199.546875 80.007812 199.820312 80.226562 199.972656 80.523438 C 201.769531 84.046875 204.574219 87.316406 208.085938 89.980469 C 213.019531 93.726562 218.636719 96.289062 224.785156 97.597656 C 226.886719 98.039062 230.402344 98.785156 233.578125 98.785156 C 236.445312 98.785156 238.566406 98.1875 239.882812 97.011719 C 240.09375 96.820312 240.367188 96.71875 240.648438 96.71875 C 240.738281 96.71875 240.832031 96.730469 240.925781 96.753906 C 241.292969 96.84375 241.59375 97.113281 241.726562 97.46875 C 245.578125 107.796875 258.375 116.523438 269.671875 116.523438 C 272.183594 116.523438 274.550781 116.097656 276.714844 115.261719 C 276.894531 115.152344 277.101562 115.097656 277.308594 115.097656 C 277.457031 115.097656 277.605469 115.125 277.75 115.183594 C 278.125 115.339844 278.390625 115.683594 278.449219 116.089844 C 280.023438 121.492188 284.207031 125.710938 288.097656 129.132812 C 292.0625 132.625 296.863281 135.867188 303.210938 139.332031 C 303.785156 139.644531 304.402344 140 305.050781 140.371094 C 308.269531 142.214844 312.277344 144.511719 315.707031 144.511719 C 316.425781 144.511719 317.097656 144.40625 317.707031 144.203125 C 317.824219 144.160156 317.949219 144.140625 318.074219 144.140625 C 318.242188 144.140625 318.40625 144.175781 318.5625 144.25 C 318.898438 144.40625 319.214844 144.511719 319.527344 144.578125 C 319.652344 144.605469 319.773438 144.617188 319.882812 144.617188 C 319.996094 144.617188 320.105469 144.605469 320.203125 144.578125 C 320.296875 144.554688 320.394531 144.542969 320.492188 144.542969 C 320.894531 144.542969 321.277344 144.757812 321.488281 145.117188 C 321.941406 145.902344 322.277344 146.59375 322.492188 147.171875 C 322.539062 147.296875 322.5625 147.433594 322.5625 147.570312 C 322.5625 147.679688 322.546875 147.804688 322.515625 147.910156 C 320.066406 156.074219 309.105469 159.714844 301.101562 162.375 C 299.355469 162.957031 297.703125 163.503906 296.3125 164.039062 C 285.105469 168.34375 273.15625 173.070312 261.660156 178.460938 C 257.664062 180.335938 253.667969 182.34375 249.808594 184.285156 C 243.019531 187.699219 235.996094 191.226562 228.722656 194.148438 C 225.707031 195.363281 222.667969 196.539062 219.632812 197.714844 C 212.21875 200.589844 204.550781 203.558594 197.289062 207.0625 C 197.167969 207.121094 197.046875 207.199219 196.972656 207.269531 C 196.894531 207.34375 196.804688 207.40625 196.710938 207.453125 C 189.09375 211.335938 178.28125 217.6875 172.351562 228.023438 C 167.925781 235.734375 167.308594 245.738281 170.46875 258.613281 L 170.792969 259.882812 C 172.367188 265.683594 174.898438 271.324219 177.351562 276.777344 C 180.347656 283.429688 183.441406 290.3125 184.914062 297.730469 C 186.503906 305.757812 184.429688 313.800781 179.078125 320.371094 C 176.5625 323.460938 174.042969 325.027344 171.59375 325.027344 C 170.121094 325.027344 168.71875 324.460938 167.417969 323.347656 C 161.824219 318.570312 159.277344 309.875 157.230469 302.886719 C 156.886719 301.710938 156.554688 300.578125 156.21875 299.503906 C 155.980469 298.734375 155.75 297.953125 155.515625 297.164062 C 154.886719 295.019531 154.234375 292.800781 153.316406 290.792969 C 151.929688 287.746094 150.21875 284.789062 148.558594 281.925781 C 147.578125 280.226562 146.5625 278.476562 145.617188 276.714844 C 143.804688 273.335938 142.566406 270.449219 141.714844 267.632812 C 140.777344 264.519531 140.652344 260.707031 140.515625 256.667969 C 140.246094 248.5625 139.964844 240.183594 133.078125 237.132812 C 131.371094 236.378906 129.453125 235.996094 127.367188 235.996094 C 120.824219 235.996094 114.203125 239.601562 110.183594 242.980469 C 108.691406 244.234375 107.503906 245.761719 106.75 247.402344 L 106.75 247.398438 C 106.71875 247.46875 106.679688 247.53125 106.636719 247.59375 C 106.554688 247.734375 106.5 247.878906 106.464844 248.042969 C 106.464844 248.042969 106.414062 248.222656 106.410156 248.238281 C 105.960938 249.503906 105.773438 250.785156 105.863281 252.039062 C 105.882812 252.316406 105.957031 252.542969 106.09375 252.742188 C 106.21875 252.917969 106.292969 253.125 106.300781 253.34375 C 106.59375 259.347656 108.398438 264.96875 110.308594 270.921875 L 110.964844 272.980469 C 111.1875 273.675781 111.429688 274.410156 111.683594 275.171875 C 113.003906 279.160156 114.5 283.679688 114.925781 288.167969 C 115.300781 292.1875 114.742188 295.441406 113.214844 298.109375 C 110.871094 302.203125 105.609375 302.726562 101.289062 302.726562 C 100.925781 302.726562 100.574219 302.722656 100.234375 302.71875 C 96.710938 302.660156 93.679688 301.652344 91.226562 299.722656 C 88.542969 297.613281 86.480469 294.371094 84.910156 289.8125 C 84.296875 288.035156 83.734375 286.140625 83.1875 284.308594 C 80.640625 275.75 78.007812 266.902344 68.929688 263.820312 C 67.183594 263.230469 65.480469 262.929688 63.875 262.929688 C 55.3125 262.929688 50.207031 271.402344 48.945312 279.792969 C 47.527344 289.308594 46.117188 301.785156 47.808594 313.90625 C 47.8125 313.933594 47.816406 313.964844 47.820312 313.992188 C 48.085938 315.957031 48.425781 317.882812 48.839844 319.714844 C 49.019531 320.511719 49.207031 321.300781 49.390625 322.082031 C 50.824219 328.175781 52.179688 333.933594 50.308594 340.402344 C 48.550781 346.476562 43.710938 349.957031 37.035156 349.957031 Z M 37.035156 349.957031 " fill-opacity="1" fill-rule="nonzero"/><path fill="#f44242" d="M 150.519531 96.601562 C 148.703125 94.722656 148.171875 92.476562 149.027344 90.273438 C 150.167969 87.339844 153.671875 84.964844 157.179688 84.757812 C 157.179688 84.757812 157.183594 84.757812 157.183594 84.757812 C 162.71875 84.757812 169 88.660156 169.300781 94.265625 C 169.390625 95.800781 168.898438 97.1875 167.875 98.269531 C 166.066406 100.183594 162.890625 100.867188 160.519531 100.867188 L 160.25 100.863281 C 156.648438 100.773438 153.011719 99.183594 150.519531 96.601562 Z M 141.03125 112.5 C 135.90625 108.210938 129.867188 106.035156 123.082031 106.035156 C 118.175781 106.035156 113.105469 107.183594 108.007812 109.445312 C 107.9375 109.472656 107.871094 109.492188 107.792969 109.496094 C 107.597656 109.507812 107.414062 109.566406 107.246094 109.667969 C 97.292969 115.863281 86.003906 127.921875 84.75 139.75 C 84.082031 146.050781 86.21875 151.632812 91.089844 156.339844 C 95.910156 160.988281 102.101562 163.449219 108.988281 163.449219 C 108.988281 163.449219 108.992188 163.449219 108.992188 163.449219 C 115.019531 163.449219 121.351562 161.613281 127.296875 158.136719 C 137.425781 152.234375 148.335938 141.46875 148.589844 128.964844 C 148.722656 122.523438 146.035156 116.675781 141.03125 112.5 Z M 231.636719 145.574219 C 235.511719 137.273438 235.441406 125.664062 226.132812 119.796875 C 220.054688 115.953125 213.128906 115.375 205.976562 115.085938 C 205.960938 115.085938 205.863281 115.085938 205.828125 115.089844 C 189.738281 116.523438 169.449219 121.792969 164.167969 138.769531 C 162.082031 145.460938 162.894531 151.628906 166.515625 156.609375 C 171.042969 162.832031 179.914062 166.765625 189.664062 166.867188 L 190.242188 166.871094 C 204.769531 166.871094 224.328125 161.292969 231.636719 145.574219 Z M 194.347656 103.511719 C 194.707031 103.582031 195.089844 103.613281 195.484375 103.613281 C 198.570312 103.613281 201.925781 101.625 203.117188 99.085938 C 204.773438 95.554688 201.464844 93.367188 199.273438 91.921875 C 199.003906 91.742188 198.742188 91.570312 198.496094 91.398438 C 198.304688 91.265625 198.078125 91.195312 197.84375 91.195312 C 197.761719 91.195312 197.6875 91.203125 197.671875 91.210938 C 194.539062 91.332031 191.59375 93.226562 190.335938 95.925781 C 189.613281 97.476562 189.632812 99.203125 190.382812 100.660156 C 191.148438 102.148438 192.59375 103.1875 194.347656 103.511719 Z M 272.996094 136.445312 C 272.859375 136.121094 272.578125 135.875 272.238281 135.78125 C 272.136719 135.753906 272.035156 135.742188 271.933594 135.742188 C 271.691406 135.742188 271.449219 135.820312 271.25 135.96875 C 267.464844 138.777344 257.046875 148.503906 256.945312 154.992188 C 256.917969 156.617188 257.546875 157.984375 258.761719 158.945312 C 260.542969 160.355469 263.441406 161.300781 265.984375 161.300781 C 265.984375 161.300781 265.984375 161.300781 265.988281 161.300781 C 268.355469 161.300781 270.238281 160.523438 271.425781 159.054688 C 273.253906 156.796875 273.417969 153.914062 273.5625 151.371094 L 273.566406 151.246094 C 273.617188 150.324219 273.703125 149.355469 273.792969 148.363281 C 274.136719 144.480469 274.523438 140.082031 272.996094 136.445312 Z M 154.28125 167.679688 C 154.214844 167.617188 154.144531 167.570312 154.074219 167.53125 C 153.425781 166.914062 152.582031 166.589844 151.640625 166.589844 C 148.664062 166.589844 145.101562 169.878906 144.152344 171.671875 C 143.4375 173.03125 143.4375 174.433594 144.15625 175.621094 C 144.945312 176.933594 146.507812 177.746094 148.226562 177.746094 C 148.425781 177.746094 148.628906 177.734375 148.832031 177.714844 C 151.34375 177.429688 157.089844 173.953125 157.328125 170.90625 C 157.394531 170.042969 157.101562 168.480469 154.410156 167.734375 C 154.386719 167.726562 154.363281 167.722656 154.339844 167.714844 L 154.339844 167.707031 C 154.324219 167.699219 154.304688 167.6875 154.28125 167.679688 Z M 68.707031 172.679688 C 68.867188 172.679688 69.03125 172.675781 69.199219 172.664062 C 73.179688 172.410156 77.621094 168.363281 78.519531 164.179688 C 79.117188 161.390625 77.996094 159.019531 75.449219 157.667969 C 75.28125 157.578125 75.070312 157.53125 74.871094 157.53125 C 74.824219 157.53125 74.777344 157.535156 74.730469 157.539062 C 74.488281 157.515625 74.25 157.507812 74.015625 157.507812 C 69.746094 157.507812 66.082031 160.960938 64.484375 164.164062 C 63.378906 166.367188 63.34375 168.789062 64.394531 170.488281 C 65.265625 171.902344 66.796875 172.679688 68.707031 172.679688 Z M 54.199219 234.386719 C 54.117188 234.347656 54.027344 234.3125 53.9375 234.292969 C 53.21875 234.132812 52.472656 234.050781 51.710938 234.050781 C 44.042969 234.050781 36.425781 242.003906 33.691406 247.378906 C 32.160156 250.40625 31.914062 253.046875 33 254.816406 C 33.917969 256.3125 35.632812 257.074219 38.097656 257.074219 L 38.257812 257.074219 C 43.175781 257 48.425781 255.019531 51.960938 251.90625 C 54.601562 249.582031 58.085938 243.675781 57.488281 239.074219 C 57.210938 236.941406 56.074219 235.320312 54.199219 234.386719 Z M 237.851562 170.945312 C 235.976562 170.246094 233.949219 169.875 231.992188 169.875 C 229.109375 169.875 226.445312 170.660156 224.28125 172.144531 C 222.601562 173.300781 221.691406 174.671875 221.652344 176.113281 C 221.625 177.019531 221.949219 178.375 223.640625 179.6875 C 225.503906 181.128906 228.089844 181.992188 230.5625 181.992188 C 231.382812 181.992188 232.175781 181.898438 232.910156 181.710938 C 235.664062 181.015625 238.203125 178.847656 239.089844 176.433594 C 239.738281 174.664062 239.492188 172.90625 238.386719 171.355469 C 238.253906 171.167969 238.066406 171.027344 237.851562 170.945312 Z M 161.742188 192.632812 C 161.625 192.59375 161.445312 192.574219 161.324219 192.574219 C 154.265625 192.574219 147.148438 196.945312 144.015625 203.199219 C 142.769531 205.695312 143.203125 207.359375 143.789062 208.3125 C 144.652344 209.726562 146.417969 210.515625 148.761719 210.535156 L 148.910156 210.539062 C 153.3125 210.539062 157.574219 208.835938 160.320312 205.984375 C 162.027344 204.21875 165.46875 199.140625 164.585938 195.570312 C 164.238281 194.148438 163.253906 193.132812 161.742188 192.632812 Z M 111.039062 177.4375 C 108.015625 176.921875 104.734375 176.660156 101.285156 176.660156 C 89.21875 176.660156 77.429688 179.757812 69.746094 184.945312 C 62.898438 189.5625 56.390625 200.101562 57.617188 208.421875 C 58.125 211.878906 60.214844 216.460938 67.265625 218.644531 C 67.359375 218.675781 67.445312 218.726562 67.515625 218.796875 C 67.695312 218.976562 67.929688 219.089844 68.179688 219.121094 C 70.203125 219.386719 72.269531 219.515625 74.496094 219.515625 C 80.277344 219.515625 86.070312 218.617188 91.667969 217.746094 C 93.367188 217.484375 95.066406 217.21875 96.761719 216.980469 C 102.953125 216.117188 109.414062 214.871094 114.691406 211.621094 C 122.023438 207.097656 126.214844 197.988281 124.652344 189.964844 C 123.351562 183.253906 118.386719 178.6875 111.039062 177.4375 Z M 111.039062 177.4375 " fill-opacity="1" fill-rule="nonzero"/><path fill="#ffffff" d="M 199.488281 124.742188 C 193.152344 125.859375 187.945312 127.101562 183.429688 132.082031 C 179.464844 136.453125 176.898438 142.03125 173.789062 147.015625 C 173.367188 147.6875 172.300781 147.589844 172.089844 146.792969 C 168.632812 133.929688 186.5625 112.84375 199.785156 122.449219 C 200.566406 123.015625 200.671875 124.53125 199.488281 124.742188 Z M 174.855469 149.632812 C 173.246094 149.632812 171.902344 150.976562 171.902344 152.585938 C 171.902344 154.195312 173.246094 155.539062 174.855469 155.539062 C 176.464844 155.539062 177.808594 154.195312 177.808594 152.585938 C 177.808594 150.976562 176.464844 149.632812 174.855469 149.632812 Z M 95.257812 140.585938 C 95.765625 141.234375 97.015625 141.039062 97.355469 140.316406 C 101.292969 131.894531 103.882812 115.488281 115.183594 114.070312 C 115.714844 114.003906 115.976562 113.464844 115.609375 113.035156 C 107.425781 103.371094 88.507812 131.929688 95.257812 140.585938 Z M 101.949219 148.273438 C 101.949219 146.707031 100.644531 145.398438 99.078125 145.398438 C 97.511719 145.398438 96.207031 146.707031 96.207031 148.273438 C 96.207031 149.839844 97.511719 151.144531 99.078125 151.144531 C 100.644531 151.144531 101.949219 149.839844 101.949219 148.273438 Z M 86.113281 186.613281 C 87.144531 186.109375 86.578125 184.621094 85.5625 184.578125 C 79.121094 184.3125 73.066406 187.105469 68.285156 191.316406 C 63.839844 195.222656 61.636719 203.113281 66.902344 207.214844 C 67.515625 207.691406 68.699219 207.667969 68.863281 206.695312 C 69.703125 201.730469 70.214844 197.964844 73.90625 194.214844 C 77.199219 190.871094 81.945312 188.65625 86.113281 186.613281 Z M 74.832031 210.699219 C 74.730469 210.125 74.515625 209.617188 74.070312 209.175781 C 73.363281 208.464844 72.300781 208.183594 71.332031 208.449219 C 70.386719 208.710938 69.628906 209.472656 69.367188 210.417969 C 69.085938 211.445312 69.425781 212.375 70.09375 213.15625 C 70.339844 213.445312 70.664062 213.667969 70.988281 213.867188 C 71.792969 214.367188 72.871094 214.34375 73.679688 213.867188 C 74.617188 213.320312 75.359375 211.941406 74.90625 210.851562 C 74.867188 210.734375 74.84375 210.695312 74.832031 210.699219 Z M 98.839844 292.375 C 91.800781 288.996094 90.851562 280.742188 87.65625 274.296875 C 87.136719 273.25 85.691406 273.851562 85.621094 274.851562 C 85.113281 281.925781 87.304688 299.945312 98.195312 297.316406 C 100.367188 296.789062 100.96875 293.398438 98.839844 292.375 Z M 30.9375 335.128906 C 29.554688 334.652344 28.125 335.898438 28.125 337.277344 C 28.125 338.652344 29.554688 339.898438 30.9375 339.421875 C 31.386719 339.265625 31.773438 339.105469 32.105469 338.75 C 32.902344 337.898438 32.902344 336.648438 32.105469 335.804688 C 31.773438 335.445312 31.390625 335.285156 30.9375 335.128906 Z M 158.199219 282.449219 C 157.675781 281.984375 156.933594 282.070312 156.550781 282.664062 C 154.332031 286.0625 155.960938 291.523438 156.871094 295.160156 C 157.945312 299.425781 159.40625 304.113281 163.75 305.9375 C 164.480469 306.246094 165.300781 305.484375 165.285156 304.769531 C 165.1875 300.890625 163.335938 297.347656 162.28125 293.667969 C 161.277344 290.152344 161.082031 285.007812 158.199219 282.449219 Z M 188.402344 41.722656 C 187.015625 43.183594 186.496094 44.625 186.363281 46.617188 C 186.242188 48.472656 186.015625 51.34375 187.371094 52.757812 C 188.113281 53.527344 189.371094 53.296875 189.910156 52.429688 C 190.773438 51.050781 190.132812 49.296875 190.003906 47.761719 C 189.871094 46.167969 189.761719 44.238281 190.023438 42.664062 C 190.175781 41.773438 189.128906 40.957031 188.402344 41.722656 Z M 193.5 48.285156 C 193.367188 48.917969 193.285156 49.59375 193.429688 50.230469 C 193.578125 50.867188 194.21875 51.316406 194.855469 51.316406 C 195.574219 51.316406 196.023438 50.851562 196.277344 50.230469 C 196.449219 49.816406 196.582031 49.148438 196.582031 48.703125 C 196.582031 48.386719 196.460938 48.113281 196.378906 47.816406 C 196.117188 46.898438 194.894531 46.527344 194.214844 47.246094 C 193.929688 47.542969 193.585938 47.871094 193.5 48.285156 Z M 257.476562 53.695312 C 249.757812 58.617188 246.789062 69.632812 248.753906 78.359375 C 249.003906 79.464844 250.4375 79.253906 250.78125 78.359375 C 253.738281 70.648438 252.820312 62.101562 258.996094 55.664062 C 259.960938 54.65625 258.703125 52.910156 257.476562 53.695312 Z M 255.183594 78.320312 C 253.761719 80.105469 251.710938 83.148438 253.304688 85.425781 C 253.871094 86.234375 255.035156 86.527344 255.78125 85.746094 C 256.402344 85.09375 256.855469 84.070312 257.117188 83.210938 C 257.382812 82.351562 257.945312 81.574219 258.484375 80.867188 C 259.929688 78.96875 256.667969 76.457031 255.183594 78.320312 Z M 327.894531 100.59375 C 329.433594 99.800781 331.171875 99.007812 332.648438 98.140625 C 333.082031 97.886719 333.648438 97.027344 333.332031 96.511719 C 333.273438 96.417969 333.214844 96.316406 333.152344 96.21875 C 332.90625 95.8125 332.433594 95.496094 331.941406 95.523438 C 328.347656 95.726562 325.460938 96.414062 322.414062 98.375 C 319.699219 100.125 316.488281 102.609375 315.441406 105.746094 C 314.855469 107.492188 316.902344 108.738281 318.347656 107.984375 C 319.984375 107.132812 321.089844 105.6875 322.402344 104.421875 C 324.023438 102.851562 325.890625 101.625 327.894531 100.59375 Z M 321.617188 90.78125 C 323.515625 89.800781 325.679688 90.0625 327.554688 89.171875 C 328.195312 88.867188 328.011719 88.046875 327.554688 87.703125 C 325.332031 86.027344 322.210938 87.683594 320.34375 89.132812 C 319.355469 89.894531 320.609375 91.304688 321.617188 90.78125 Z M 295.058594 93.179688 C 296.042969 92.109375 296.644531 90.792969 297.585938 89.703125 C 298.492188 88.65625 299.710938 87.957031 300.753906 87.082031 C 301.1875 86.714844 301.085938 85.859375 300.5625 85.617188 C 298.667969 84.746094 296.792969 85.609375 295.363281 86.988281 C 293.84375 88.460938 292.703125 90.613281 293.367188 92.730469 C 293.585938 93.425781 294.523438 93.761719 295.058594 93.179688 Z M 334.902344 125.144531 C 333.265625 125.144531 331.902344 126.511719 331.902344 128.144531 C 331.902344 129.78125 333.269531 131.144531 334.902344 131.144531 C 336.539062 131.144531 337.902344 129.78125 337.902344 128.144531 C 337.902344 126.511719 336.535156 125.144531 334.902344 125.144531 Z M 325.6875 170.558594 C 323.882812 170.558594 322.375 172.066406 322.375 173.875 C 322.375 175.683594 323.882812 177.195312 325.6875 177.195312 C 327.496094 177.195312 329.003906 175.683594 329.003906 173.875 C 329.003906 172.066406 327.496094 170.558594 325.6875 170.558594 Z M 306.421875 183.355469 C 304.0625 183.355469 302.09375 185.324219 302.09375 187.683594 C 302.09375 190.042969 304.0625 192.011719 306.421875 192.011719 C 308.78125 192.011719 310.75 190.042969 310.75 187.683594 C 310.75 185.324219 308.78125 183.355469 306.421875 183.355469 Z M 215.257812 188.8125 C 213.183594 189.050781 211.519531 189.367188 209.523438 190.121094 C 207.394531 190.921875 205.390625 192.207031 203.496094 193.445312 C 201.691406 194.621094 203.253906 197.25 205.167969 196.308594 C 206.9375 195.4375 208.769531 194.753906 210.585938 193.992188 C 212.566406 193.171875 214.136719 192.226562 215.851562 191 C 216.6875 190.398438 216.542969 188.667969 215.257812 188.8125 Z M 302.683594 151.242188 C 298.566406 150.953125 294.648438 153.070312 290.964844 154.664062 C 287.734375 156.0625 282.925781 158.191406 281.320312 161.53125 C 280.882812 162.441406 281.59375 163.285156 282.554688 163.136719 C 286.140625 162.570312 289.808594 159.847656 293.121094 158.351562 C 296.585938 156.777344 300.640625 155.46875 303.226562 152.554688 C 303.683594 152.039062 303.363281 151.292969 302.683594 151.242188 Z M 160.398438 224.160156 C 156.941406 229.640625 155.246094 239.5625 159.386719 245.195312 C 160.03125 246.070312 161.347656 245.777344 161.425781 244.644531 C 161.855469 238.253906 159.585938 231.605469 162.566406 225.429688 C 163.261719 223.984375 161.273438 222.78125 160.398438 224.160156 Z M 101.976562 238.402344 C 100.710938 240.867188 99.535156 244.507812 100.898438 247.105469 C 101.210938 247.707031 102.109375 247.664062 102.433594 247.105469 C 103.25 245.703125 103.355469 244.386719 103.644531 242.804688 C 103.914062 241.308594 104.054688 240.128906 103.753906 238.632812 C 103.589844 237.816406 102.351562 237.675781 101.976562 238.402344 Z M 49.453125 246.753906 C 48.308594 247.394531 37.878906 250.46875 39.324219 252.433594 C 40.484375 254.003906 43.539062 252.441406 44.945312 251.984375 C 47.171875 251.265625 49.347656 249.9375 50.671875 247.972656 C 51.1875 247.203125 50.195312 246.335938 49.453125 246.753906 Z M 128.628906 66.632812 C 123.578125 72.246094 117.863281 77.207031 112.753906 82.765625 C 106.203125 89.882812 99.984375 97.300781 93.980469 104.886719 C 88.71875 111.53125 83.710938 118.355469 78.941406 125.359375 C 74.753906 131.503906 69.695312 137.984375 66.699219 144.976562 C 66.230469 145.113281 65.769531 145.339844 65.347656 145.714844 C 58.507812 151.730469 54.015625 161.300781 50.046875 169.347656 C 45.726562 178.117188 42.101562 187.222656 38.367188 196.25 C 34.007812 206.792969 28.957031 217.058594 23.648438 227.15625 C 18.890625 236.203125 14.402344 244.792969 11.726562 254.722656 C 6.808594 272.960938 3.980469 292.140625 9.429688 310.476562 C 11.792969 318.4375 14.5 326.324219 16.988281 334.246094 C 18.980469 340.582031 21.886719 345.859375 28.824219 346.929688 C 29.601562 347.046875 30.328125 346.148438 29.652344 345.507812 C 25.421875 341.488281 23.921875 333.867188 22.589844 328.398438 C 22.523438 328.113281 22.441406 327.839844 22.371094 327.558594 C 23.71875 328.953125 25.324219 329.925781 27.183594 329.859375 C 27.785156 329.835938 28.472656 329.320312 28.398438 328.644531 C 28.027344 325.355469 24.988281 322.257812 23.339844 319.429688 C 21.027344 315.476562 19.382812 310.511719 19.226562 305.917969 C 19.148438 303.5625 15.710938 303.578125 15.589844 305.917969 C 15.585938 305.957031 15.585938 305.996094 15.585938 306.035156 C 15.496094 305.730469 15.402344 305.429688 15.316406 305.125 C 12.664062 295.59375 13.207031 286.671875 14.730469 277.003906 C 16.089844 268.359375 17.566406 259.757812 20.175781 251.386719 C 22.886719 242.6875 27.71875 234.945312 31.898438 226.914062 C 36.640625 217.804688 40.984375 208.496094 44.980469 199.035156 C 48.664062 190.3125 52.210938 181.546875 56.316406 173.011719 C 60.324219 164.679688 66.027344 157.652344 70.492188 149.683594 C 70.9375 148.890625 71.03125 148.117188 70.886719 147.425781 C 75.53125 142.214844 79.144531 135.78125 83.144531 130.1875 C 88.546875 122.632812 94.132812 115.195312 99.902344 107.921875 C 105.492188 100.878906 111.367188 94.074219 117.421875 87.433594 C 122.511719 81.851562 128.261719 76.929688 133.320312 71.320312 C 136.175781 68.15625 131.496094 63.445312 128.628906 66.632812 Z M 197.425781 32.71875 C 200.210938 33.378906 201.179688 29.492188 198.585938 28.507812 C 191.246094 25.710938 182.390625 25.914062 174.773438 27.214844 C 169.660156 28.09375 162.546875 30.746094 159.300781 35.511719 C 159.292969 35.5 159.289062 35.480469 159.28125 35.46875 C 152.371094 26.175781 136.191406 33.035156 130.847656 40.769531 C 125.152344 49.019531 124.214844 63.152344 135.222656 67.363281 C 136.246094 67.753906 137.253906 66.585938 136.964844 65.621094 C 135.03125 59.136719 132.640625 53.148438 135.867188 46.609375 C 139.578125 39.085938 149.515625 35.351562 157.269531 38.082031 C 157.523438 38.171875 157.78125 38.164062 158.027344 38.113281 C 157.960938 38.324219 157.878906 38.523438 157.828125 38.738281 C 157.617188 39.585938 158.566406 40.003906 159.175781 39.527344 C 161.875 37.425781 163.914062 35.105469 167.078125 33.566406 C 170.546875 31.875 174.28125 31.050781 178.101562 30.640625 C 184.742188 29.929688 191.015625 31.203125 197.425781 32.71875 Z M 321.699219 70.867188 C 319.0625 59.28125 307.097656 51.898438 296.917969 47.8125 C 290.363281 45.183594 283.324219 43.367188 276.261719 43.027344 C 271.503906 42.796875 265.089844 42.761719 260.160156 44.824219 C 260.363281 44.195312 260.332031 43.496094 259.953125 42.886719 C 253.644531 32.890625 239.226562 26.816406 228.003906 25.070312 C 216.484375 23.277344 204.84375 26.191406 196.714844 34.789062 C 195.652344 35.914062 197.097656 38.003906 198.433594 37.015625 C 207.460938 30.320312 218.734375 29.722656 229.398438 32.152344 C 234.378906 33.289062 239.050781 35.144531 243.515625 37.613281 C 248.277344 40.246094 251.992188 44.714844 257.15625 46.511719 C 256.53125 46.976562 255.949219 47.488281 255.4375 48.078125 C 255.207031 48.339844 255.246094 48.894531 255.667969 48.957031 C 258.199219 49.328125 259.898438 48.929688 262.457031 48.304688 C 266.738281 47.261719 271.277344 47 275.644531 47.597656 C 281.21875 48.363281 287.253906 52.042969 292.335938 54.433594 C 297.414062 56.824219 302.546875 59.261719 306.917969 62.835938 C 310.789062 66.003906 312.496094 70.855469 316.15625 74.097656 C 318.648438 76.308594 322.449219 74.183594 321.699219 70.867188 Z M 280.3125 72.675781 C 277.707031 75.933594 273.957031 80.550781 274.152344 84.984375 C 274.199219 86.128906 275.828125 86.722656 276.410156 85.597656 C 277.339844 83.804688 277.714844 81.773438 278.605469 79.941406 C 279.605469 77.875 280.796875 75.9375 282.089844 74.046875 C 282.816406 72.992188 281.117188 71.671875 280.3125 72.675781 Z M 219.921875 52.535156 C 212.175781 59.261719 206.976562 74.839844 216.011719 82.792969 C 216.703125 83.40625 217.933594 82.832031 217.632812 81.847656 C 216.21875 77.230469 214.78125 73.476562 214.855469 68.511719 C 214.933594 63.097656 217.601562 57.691406 220.949219 53.566406 C 221.539062 52.84375 220.640625 51.914062 219.921875 52.535156 Z M 219.921875 52.535156 " fill-opacity="1" fill-rule="nonzero"/><path fill="#660c0c" d="M 279.75 66.355469 C 279.972656 65.503906 280.082031 64.5 280.777344 63.859375 C 281.539062 63.160156 282.351562 62.632812 283.289062 62.203125 C 284.828125 61.5 286.898438 60.753906 288.59375 61.207031 C 289.316406 61.398438 289.738281 62.503906 289.074219 63.027344 C 287.859375 63.984375 286.242188 64.214844 284.878906 64.925781 C 284.234375 65.257812 283.585938 65.617188 283 66.042969 C 282.421875 66.464844 281.648438 66.671875 281.117188 67.152344 C 280.519531 67.695312 279.535156 67.171875 279.75 66.355469 Z M 230.480469 57.019531 C 231.011719 56.765625 231.480469 56.496094 231.925781 56.097656 C 232.316406 55.746094 232.648438 55.363281 233.015625 54.992188 C 233.476562 54.523438 233.015625 53.527344 232.328125 53.808594 C 231.769531 54.035156 231.234375 54.214844 230.714844 54.527344 C 230.121094 54.882812 229.742188 55.367188 229.414062 55.949219 C 229.007812 56.667969 229.792969 57.355469 230.480469 57.019531 Z M 214.769531 51.699219 C 216.210938 50.359375 218.257812 47.824219 217.460938 45.730469 C 217.265625 45.207031 216.527344 45.285156 216.488281 45.859375 C 216.472656 46.117188 216.140625 46.445312 215.988281 46.652344 C 215.621094 47.132812 215.328125 47.675781 214.996094 48.183594 C 214.382812 49.125 213.898438 50.1875 213.867188 51.324219 C 213.855469 51.804688 214.445312 52 214.769531 51.699219 Z M 263.453125 66.261719 C 263.582031 66.046875 263.796875 65.851562 263.933594 65.632812 C 264.105469 65.355469 264.1875 64.96875 264.277344 64.65625 C 264.46875 63.972656 264.464844 63.242188 264.414062 62.546875 C 264.335938 61.445312 262.847656 61.476562 262.730469 62.546875 C 262.671875 63.078125 262.5625 63.625 262.457031 64.152344 C 262.40625 64.410156 262.386719 64.675781 262.363281 64.933594 C 262.320312 65.328125 262.453125 65.621094 262.46875 65.996094 C 262.492188 66.511719 263.175781 66.730469 263.453125 66.261719 Z M 312.605469 104.414062 C 312.253906 105.082031 312.269531 106.035156 312.125 106.769531 C 311.957031 107.660156 311.867188 108.585938 312.273438 109.425781 C 312.433594 109.761719 312.894531 109.757812 313.136719 109.539062 C 313.839844 108.90625 314.039062 107.941406 314.121094 107.039062 C 314.199219 106.21875 314.414062 105.183594 314.042969 104.414062 C 313.773438 103.855469 312.882812 103.886719 312.605469 104.414062 Z M 297.566406 99.078125 L 297.574219 99.070312 C 297.554688 98.894531 297.5625 98.96875 297.566406 99.078125 Z M 297.546875 99.101562 C 297.558594 98.5 296.84375 98.011719 296.253906 98.523438 C 295.867188 98.863281 295.65625 99.542969 295.5625 100.023438 C 295.464844 100.535156 295.390625 101.566406 296.046875 101.8125 C 296.296875 101.992188 296.628906 101.933594 296.828125 101.660156 C 296.617188 101.949219 296.914062 101.671875 296.957031 101.636719 C 297.109375 101.484375 297.1875 101.324219 297.253906 101.121094 C 297.175781 101.355469 297.445312 100.613281 297.382812 100.855469 C 297.417969 100.714844 297.441406 100.578125 297.46875 100.4375 C 297.519531 100.148438 297.546875 99.867188 297.558594 99.574219 C 297.5625 99.488281 297.570312 99.40625 297.574219 99.320312 C 297.578125 99.28125 297.574219 99.167969 297.566406 99.082031 C 297.5625 99.085938 297.554688 99.09375 297.546875 99.101562 Z M 177.320312 45.59375 C 178.042969 44.996094 177.867188 43.527344 177.84375 42.695312 C 177.8125 41.621094 176.210938 41.621094 176.179688 42.695312 C 176.15625 43.527344 175.984375 44.996094 176.703125 45.59375 C 176.898438 45.757812 177.125 45.757812 177.320312 45.59375 Z M 218.976562 149.304688 C 222.558594 147.621094 225.300781 144.46875 226.691406 140.757812 C 227.625 138.261719 228.472656 132.691406 224.847656 131.804688 C 224.636719 131.753906 224.351562 131.914062 224.378906 132.164062 C 224.503906 133.253906 225.058594 134.148438 225.179688 135.25 C 225.378906 137.027344 224.644531 138.902344 223.917969 140.476562 C 222.605469 143.3125 220.515625 146.246094 218.335938 148.472656 C 217.898438 148.925781 218.449219 149.550781 218.976562 149.304688 Z M 209.59375 155.335938 C 210.832031 155.964844 212.214844 155.226562 213.359375 154.714844 C 214.226562 154.328125 213.585938 153.078125 212.746094 153.257812 C 211.734375 153.472656 210.484375 153.292969 209.59375 153.859375 C 209.082031 154.183594 208.996094 155.035156 209.59375 155.335938 Z M 137.738281 123.078125 C 137.203125 122.960938 136.933594 123.636719 137.375 123.9375 C 139.628906 125.488281 139.707031 128.238281 138.910156 130.621094 C 138.179688 132.8125 136.320312 135.023438 136.003906 137.261719 C 135.863281 138.261719 136.582031 139.25 137.691406 138.949219 C 141.09375 138.03125 142.605469 132.921875 142.613281 129.824219 C 142.621094 126.476562 141.078125 123.800781 137.738281 123.078125 Z M 128.234375 147.1875 C 127.832031 147.429688 127.652344 147.78125 127.386719 148.148438 C 127.136719 148.5 126.71875 148.746094 126.394531 149.027344 C 125.613281 149.710938 124.800781 150.328125 124.75 151.4375 C 124.738281 151.6875 124.902344 152.011719 125.136719 152.117188 C 125.777344 152.398438 126.28125 152.417969 126.921875 152.097656 C 127.46875 151.828125 127.957031 151.449219 128.34375 150.976562 C 128.976562 150.191406 129.832031 148.773438 129.585938 147.738281 C 129.449219 147.164062 128.730469 146.890625 128.234375 147.1875 Z M 112.144531 185.363281 C 111.597656 185.507812 111.566406 186.203125 111.996094 186.492188 C 117.824219 190.445312 109.605469 197.441406 110.160156 202.644531 C 110.203125 203.042969 110.453125 203.332031 110.867188 203.351562 C 115.003906 203.542969 117.101562 196.425781 117.664062 193.460938 C 118.304688 190.09375 116.753906 184.144531 112.144531 185.363281 Z M 101.953125 202.832031 C 100.945312 202.902344 99.988281 203.195312 99.566406 204.148438 C 99.304688 204.652344 99.304688 205.238281 99.566406 205.742188 C 99.988281 206.695312 100.945312 206.988281 101.953125 207.058594 C 103.105469 207.132812 104.066406 206.039062 104.066406 204.945312 C 104.066406 203.851562 103.105469 202.757812 101.953125 202.832031 Z M 232.800781 173.933594 C 232.796875 174.097656 232.820312 174.265625 232.894531 174.414062 C 233.003906 174.640625 232.972656 174.894531 232.957031 175.132812 C 232.933594 175.492188 233.167969 175.800781 233.449219 175.988281 C 233.476562 176.007812 233.5 176.023438 233.523438 176.042969 C 233.75 176.191406 234.152344 176.210938 234.378906 176.042969 C 234.398438 176.023438 234.421875 176.007812 234.445312 175.988281 C 234.820312 175.707031 235.011719 175.34375 234.902344 174.871094 C 234.789062 174.386719 234.597656 173.898438 234.257812 173.527344 C 234.035156 173.289062 233.828125 173.222656 233.511719 173.183594 C 233.453125 173.191406 233.40625 173.195312 233.375 173.199219 C 233.277344 173.1875 233.183594 173.175781 233.089844 173.171875 C 232.785156 173.164062 232.554688 173.535156 232.730469 173.796875 C 232.761719 173.84375 232.777344 173.886719 232.800781 173.933594 Z M 166.464844 269.867188 C 166.0625 269.550781 165.417969 269.824219 165.5625 270.390625 C 166.957031 275.761719 170.472656 280.578125 172.875 285.539062 C 174.703125 289.316406 176.148438 293.195312 176.6875 297.375 C 177.035156 300.0625 176.773438 302.523438 177.375 305.191406 C 177.464844 305.585938 177.96875 305.675781 178.238281 305.421875 C 182.765625 301.113281 180.53125 293.941406 178.707031 288.769531 C 176.351562 282.085938 172.136719 274.3125 166.464844 269.867188 Z M 174.371094 311.046875 C 173.695312 311.765625 172.976562 312.679688 172.847656 313.6875 C 172.816406 313.898438 173.0625 314.140625 173.273438 314.113281 C 174.375 313.96875 175.582031 313.015625 175.855469 311.910156 C 176.0625 311.070312 175 310.378906 174.371094 311.046875 Z M 101.070312 257.996094 C 100.75 257.816406 100.234375 258.035156 100.277344 258.453125 C 100.621094 262.007812 102.089844 265.730469 102.699219 269.316406 C 103.523438 274.171875 103.238281 279.316406 105.160156 283.914062 C 105.375 284.425781 106.011719 284.445312 106.222656 283.914062 C 107.980469 279.449219 106.792969 274.390625 105.964844 269.824219 C 105.367188 266.542969 104.359375 259.839844 101.070312 257.996094 Z M 104.585938 289.234375 C 104.570312 290.121094 104.414062 290.953125 104.015625 291.75 C 103.699219 292.378906 103.082031 292.917969 103.234375 293.671875 C 103.265625 293.8125 103.410156 293.972656 103.554688 293.992188 C 104.542969 294.148438 105.140625 293.117188 105.527344 292.351562 C 106.019531 291.386719 106.203125 290.308594 106.226562 289.234375 C 106.246094 288.175781 104.601562 288.175781 104.585938 289.234375 Z M 41.171875 292.398438 C 41.203125 291.777344 40.300781 291.8125 40.226562 292.398438 C 39.347656 299.5 38.246094 306.519531 38.941406 313.6875 C 39.460938 319.097656 41.640625 324.769531 42.910156 330.058594 C 43.105469 330.871094 44.324219 331.054688 44.71875 330.296875 C 47.285156 325.3125 45.644531 321.472656 43.667969 316.503906 C 40.570312 308.703125 40.738281 300.652344 41.171875 292.398438 Z M 41.058594 336.195312 C 40.980469 336.605469 40.855469 337.074219 40.648438 337.433594 C 40.550781 337.605469 40.382812 337.71875 40.257812 337.871094 C 40.117188 338.039062 39.988281 338.277344 39.839844 338.425781 C 39.628906 338.640625 39.71875 339.03125 40.015625 339.105469 C 40.40625 339.203125 40.617188 339.28125 41.03125 339.199219 C 41.433594 339.121094 41.78125 338.8125 42.050781 338.519531 C 42.675781 337.835938 42.773438 337.074219 42.640625 336.195312 C 42.523438 335.390625 41.210938 335.425781 41.058594 336.195312 Z M 222.03125 229.210938 C 215.964844 230.667969 210.683594 233.914062 205.203125 236.796875 C 199.601562 239.746094 193.527344 241.804688 188 244.832031 C 187.597656 245.050781 187.792969 245.660156 188.226562 245.667969 C 194.070312 245.800781 199.964844 242.847656 205.167969 240.453125 C 211.300781 237.628906 217.5 234.617188 222.511719 230.035156 C 222.890625 229.6875 222.492188 229.097656 222.03125 229.210938 Z M 234.25 223.164062 C 232.953125 222.585938 231.550781 223.082031 230.617188 224.117188 C 230.195312 224.582031 229.71875 225.234375 229.738281 225.878906 C 229.722656 225.894531 229.710938 225.914062 229.699219 225.929688 C 229.375 226.414062 229.957031 226.976562 230.441406 226.773438 C 230.5625 226.808594 230.695312 226.832031 230.832031 226.828125 C 231.195312 226.804688 231.550781 226.773438 231.914062 226.742188 C 233.050781 226.640625 234.125 226.308594 234.828125 225.371094 C 235.316406 224.71875 234.992188 223.496094 234.25 223.164062 Z M 291.179688 177.8125 C 288.09375 177.8125 288.09375 182.597656 291.179688 182.597656 C 294.265625 182.597656 294.265625 177.8125 291.179688 177.8125 Z M 312.75 172.097656 C 310.082031 172.097656 310.082031 176.230469 312.75 176.230469 C 315.414062 176.230469 315.414062 172.097656 312.75 172.097656 Z M 237.648438 198.890625 C 236.535156 198.890625 235.605469 199.820312 235.605469 200.933594 C 235.605469 202.046875 236.535156 202.976562 237.648438 202.976562 C 238.761719 202.976562 239.691406 202.046875 239.691406 200.933594 C 239.691406 199.820312 238.761719 198.890625 237.648438 198.890625 Z M 258.972656 205.179688 C 256.304688 205.179688 256.304688 209.3125 258.972656 209.3125 C 261.636719 209.3125 261.636719 205.179688 258.972656 205.179688 Z M 313.035156 91.15625 C 314.6875 91.15625 314.6875 88.59375 313.035156 88.59375 C 311.382812 88.59375 311.382812 91.15625 313.035156 91.15625 Z M 279.132812 90.0625 C 284.25 78.042969 292.050781 69.976562 304.574219 66.015625 C 305.210938 65.816406 305.128906 64.746094 304.40625 64.804688 C 290.417969 65.878906 282.617188 77.636719 278.457031 89.773438 C 278.320312 90.171875 278.96875 90.449219 279.132812 90.0625 Z M 207.339844 61.96875 C 206.707031 53.167969 206.476562 43.957031 213.195312 37.179688 C 213.511719 36.863281 213.050781 36.433594 212.722656 36.703125 C 205.679688 42.398438 203.378906 53.648438 205.949219 62.15625 C 206.171875 62.898438 207.398438 62.792969 207.339844 61.96875 Z M 230.464844 89.101562 C 230.5625 89.457031 231.167969 89.398438 231.125 89.011719 C 229.914062 77.464844 234.613281 68.351562 238.046875 57.753906 C 238.179688 57.339844 237.589844 57.121094 237.371094 57.464844 C 231.472656 66.78125 227.402344 78.164062 230.464844 89.101562 Z M 173.820312 67.78125 C 171.929688 62.65625 170.589844 57.953125 170.167969 52.457031 C 169.875 48.625 170.199219 44.679688 169.527344 40.890625 C 169.476562 40.597656 169.035156 40.625 168.964844 40.890625 C 166.832031 49.035156 167.488281 61.289062 172.238281 68.445312 C 172.753906 69.222656 174.175781 68.746094 173.820312 67.78125 Z M 140.242188 66.242188 C 140.527344 66.46875 141.039062 66.171875 140.789062 65.820312 C 136.640625 60.011719 135.210938 50.070312 140.023438 44.246094 C 140.132812 44.117188 139.996094 43.894531 139.835938 44 C 133.539062 48.09375 134.800781 61.960938 140.242188 66.242188 Z M 252.203125 132.734375 C 253.660156 132.734375 254.875 131.519531 254.875 130.066406 C 254.875 128.609375 253.660156 127.394531 252.203125 127.394531 C 250.75 127.394531 249.535156 128.609375 249.535156 130.066406 C 249.535156 131.519531 250.75 132.734375 252.203125 132.734375 Z M 196.078125 178.625 C 193.167969 178.625 190.742188 181.054688 190.742188 183.964844 C 190.742188 186.875 193.167969 189.304688 196.078125 189.304688 C 198.988281 189.304688 201.417969 186.875 201.417969 183.964844 C 201.417969 181.054688 198.988281 178.625 196.078125 178.625 Z M 164.199219 124.445312 C 165.785156 124.445312 167.109375 123.121094 167.109375 121.535156 L 167.109375 121.53125 C 167.109375 119.941406 165.789062 118.617188 164.199219 118.617188 C 162.613281 118.617188 161.289062 119.941406 161.289062 121.53125 L 161.289062 121.535156 C 161.289062 123.121094 162.613281 124.445312 164.199219 124.445312 Z M 129.625 88.992188 C 131.71875 88.992188 133.46875 87.242188 133.46875 85.148438 C 133.46875 83.054688 131.71875 81.304688 129.625 81.304688 C 127.53125 81.304688 125.785156 83.054688 125.785156 85.148438 C 125.785156 87.242188 127.53125 88.992188 129.625 88.992188 Z M 42.460938 222.183594 C 49.460938 222.183594 49.460938 211.324219 42.460938 211.324219 C 35.460938 211.324219 35.460938 222.183594 42.460938 222.183594 Z M 76.195312 232.515625 C 70.457031 232.515625 70.457031 241.414062 76.195312 241.414062 C 81.929688 241.414062 81.929688 232.515625 76.195312 232.515625 Z M 122.988281 217.015625 C 121.957031 216.414062 120.367188 216.285156 119.355469 217.015625 C 119.332031 217.035156 119.304688 217.050781 119.28125 217.070312 C 117.902344 218.066406 117.171875 219.488281 117.597656 221.210938 C 117.710938 221.671875 117.9375 222.101562 118.125 222.53125 C 118.597656 223.601562 119.992188 224.234375 121.09375 224.234375 C 122.203125 224.234375 123.582031 223.601562 124.0625 222.53125 C 124.132812 222.375 124.203125 222.226562 124.296875 222.085938 C 124.851562 221.273438 124.921875 220.082031 124.640625 219.164062 C 124.359375 218.261719 123.8125 217.5 122.988281 217.015625 Z M 130.972656 170.195312 C 126.539062 170.195312 126.539062 177.070312 130.972656 177.070312 C 135.40625 177.070312 135.40625 170.195312 130.972656 170.195312 Z M 178.585938 179.957031 C 178.21875 180.058594 177.890625 180.230469 177.5625 180.417969 C 177.527344 180.4375 177.488281 180.453125 177.457031 180.46875 C 177.457031 180.472656 177.457031 180.472656 177.453125 180.472656 C 176.121094 180.917969 175.257812 182.238281 175.648438 183.652344 C 175.984375 184.882812 177.523438 186.003906 178.832031 185.460938 C 179.339844 185.25 179.824219 185.054688 180.28125 184.746094 C 181.578125 183.871094 182.054688 182.566406 181.398438 181.097656 C 180.953125 180.105469 179.558594 179.683594 178.585938 179.957031 Z M 35.464844 279.632812 C 35.183594 278.164062 33.613281 277.136719 32.191406 277.136719 C 30.769531 277.136719 29.199219 278.164062 28.914062 279.632812 C 28.886719 279.777344 28.859375 279.925781 28.828125 280.074219 C 28.5625 280.75 28.484375 281.496094 28.742188 282.246094 C 28.75 282.265625 28.757812 282.289062 28.761719 282.3125 C 28.910156 283.074219 29.363281 283.691406 29.960938 284.140625 C 30.046875 284.207031 30.144531 284.261719 30.238281 284.320312 C 30.304688 284.363281 30.367188 284.414062 30.441406 284.453125 C 30.6875 284.59375 30.949219 284.714844 31.246094 284.796875 C 31.550781 284.878906 31.871094 284.902344 32.191406 284.894531 C 32.511719 284.902344 32.832031 284.878906 33.136719 284.796875 C 33.433594 284.714844 33.695312 284.59375 33.941406 284.453125 C 34.015625 284.414062 34.078125 284.363281 34.144531 284.320312 C 34.238281 284.261719 34.335938 284.207031 34.421875 284.140625 C 35.015625 283.691406 35.472656 283.074219 35.621094 282.3125 C 35.625 282.289062 35.628906 282.265625 35.640625 282.246094 C 35.894531 281.496094 35.820312 280.75 35.550781 280.074219 C 35.523438 279.925781 35.496094 279.777344 35.464844 279.632812 Z M 200.996094 227.070312 C 203.195312 227.070312 205.035156 225.230469 205.035156 223.03125 C 205.035156 220.828125 203.195312 218.992188 200.996094 218.992188 C 198.796875 218.992188 196.957031 220.828125 196.957031 223.03125 C 196.957031 225.230469 198.796875 227.070312 200.996094 227.070312 Z M 282.488281 190.925781 C 282.261719 190.898438 282.03125 190.878906 281.804688 190.855469 C 280.710938 190.253906 279.289062 190.375 278.3125 191.3125 C 278.253906 191.371094 278.191406 191.425781 278.128906 191.480469 C 277.605469 191.933594 277.335938 192.722656 277.335938 193.394531 C 277.335938 194.445312 277.890625 195.132812 278.675781 195.738281 C 278.75 195.796875 278.824219 195.851562 278.902344 195.90625 C 280.078125 196.730469 281.585938 196.300781 282.496094 195.339844 C 282.734375 195.214844 282.976562 195.09375 283.214844 194.96875 C 283.8125 194.660156 284.15625 194.28125 284.515625 193.722656 C 284.785156 193.300781 284.824219 192.589844 284.515625 192.171875 C 283.972656 191.433594 283.433594 191.046875 282.488281 190.925781 Z M 341.558594 135.601562 C 338.273438 135.601562 338.273438 140.699219 341.558594 140.699219 C 344.84375 140.699219 344.84375 135.601562 341.558594 135.601562 Z M 336.617188 153.914062 C 332.191406 153.914062 332.191406 160.785156 336.617188 160.785156 C 341.050781 160.785156 341.050781 153.914062 336.617188 153.914062 Z M 355.71875 128.160156 C 354.417969 128.519531 353.632812 129.90625 353.992188 131.203125 C 354.355469 132.523438 355.644531 133.179688 356.921875 132.953125 C 358.042969 132.75 358.847656 131.65625 358.847656 130.546875 C 358.847656 128.9375 357.269531 127.734375 355.71875 128.160156 Z M 369.355469 139.101562 C 366.457031 153.96875 359.300781 164.980469 348.84375 175.097656 C 348.84375 175.648438 348.628906 176.222656 348.109375 176.730469 C 342.667969 181.964844 334.523438 185.292969 327.980469 188.777344 C 315.058594 195.667969 301.992188 202.273438 288.902344 208.808594 C 258.246094 224.128906 227.441406 239.1875 196.429688 253.769531 C 189.621094 256.957031 182.753906 260.003906 175.839844 262.953125 C 178.058594 269.28125 180.980469 275.4375 183.625 281.695312 C 188.285156 292.6875 192.195312 306.230469 185.617188 317.34375 C 182.246094 323.050781 175.367188 331.925781 167.648438 327.933594 C 161.070312 324.515625 157.976562 316 155.640625 309.460938 C 152.292969 300.128906 149.921875 291.441406 144.828125 282.800781 C 143.722656 280.914062 142.628906 279.015625 141.640625 277.082031 C 135.347656 279.625 129.042969 282.179688 122.785156 284.78125 C 121.347656 285.378906 119.921875 285.976562 118.496094 286.585938 C 118.792969 289.347656 118.75 292.144531 118.207031 294.988281 C 116.757812 302.570312 110.351562 306.21875 102.957031 306.390625 C 95.789062 306.550781 90.3125 304.421875 86.425781 300.082031 C 82.066406 301.761719 77.671875 303.339844 73.195312 304.71875 C 65.765625 307.035156 58.210938 309.117188 51.179688 312.453125 C 51.375 313.890625 51.628906 315.34375 51.960938 316.828125 C 54.25 327 58.371094 340.371094 49.523438 348.894531 C 42.324219 355.835938 29.625 355.269531 22.699219 347.988281 C 14.519531 339.390625 13.691406 326.988281 8.882812 316.621094 C 6.007812 310.441406 2.335938 303.835938 2.050781 296.863281 C 1.808594 291.0625 4.636719 285.863281 5.558594 280.382812 C 5.28125 280.015625 5.132812 279.507812 5.210938 278.875 C 6.109375 271.433594 4.796875 265.046875 7.710938 257.808594 C 9.042969 254.457031 10.355469 251.074219 11.734375 247.75 C 11.78125 247.601562 11.976562 247.105469 12.023438 246.980469 C 13.164062 243.757812 14.277344 240.535156 15.460938 237.324219 C 20.847656 222.710938 26.964844 208.351562 33.765625 194.335938 C 57.023438 146.375 87.632812 101.933594 125.351562 64.191406 C 121.53125 59.347656 120.75 53.191406 123.0625 47.113281 C 127.917969 34.410156 146.78125 24.273438 158.433594 33.730469 C 161.746094 28.460938 168.882812 24.800781 174.113281 23.398438 C 181.128906 21.535156 196.683594 19.09375 202.664062 25.410156 C 203.089844 25.113281 203.515625 24.847656 203.929688 24.617188 C 210.164062 21.269531 217.859375 21.28125 224.726562 22.003906 C 232.976562 22.867188 241.316406 24.445312 248.976562 27.714844 C 254.257812 29.957031 261.320312 35.46875 262.136719 41.71875 C 271.382812 38 282.761719 39.152344 292.414062 42.363281 C 300.027344 44.894531 307.6875 48.472656 313.632812 53.972656 C 318.074219 58.078125 328.140625 66.769531 323.425781 73.636719 C 331.636719 74.097656 339.875 77.160156 346.394531 81.796875 C 352.929688 86.433594 358.429688 92.09375 363.292969 98.449219 C 366.503906 102.636719 373.011719 111.417969 368.320312 116.410156 C 368.167969 116.558594 367.984375 116.6875 367.777344 116.765625 C 370.90625 123.050781 370.917969 131.070312 369.355469 139.101562 Z M 130.078125 61.070312 C 130.089844 61.070312 130.089844 61.082031 130.089844 61.082031 C 130.863281 61.300781 131.515625 61.898438 131.816406 62.636719 C 135.394531 65.46875 140.054688 67.203125 144.621094 67.019531 C 146.207031 66.953125 147.777344 66.613281 149.335938 66.226562 C 144.40625 61.394531 143.347656 52.292969 146.121094 46.199219 C 146.316406 45.765625 147.027344 45.984375 147 46.433594 C 146.613281 53.488281 147.34375 59.175781 152.265625 64.574219 C 152.511719 64.839844 152.640625 65.121094 152.699219 65.398438 C 153.984375 65.105469 155.265625 64.886719 156.550781 64.871094 C 155.882812 61.613281 156.191406 58.136719 157.835938 54.664062 C 157.941406 54.457031 158.265625 54.558594 158.265625 54.777344 C 157.976562 65.503906 165.109375 73.5 175.136719 76.882812 C 178.386719 77.972656 182 78.777344 185.546875 78.800781 C 180.535156 72.527344 178.441406 62.902344 180.566406 55.589844 C 180.609375 55.445312 180.847656 55.386719 180.917969 55.542969 C 182.449219 59.011719 182.503906 63.113281 183.605469 66.75 C 185.019531 71.429688 187.050781 75.261719 190.769531 78.175781 C 192.949219 77.5625 194.925781 76.421875 196.972656 75.539062 C 196.097656 71.476562 196.429688 67.148438 198.328125 62.796875 C 198.59375 62.1875 199.480469 62.546875 199.503906 63.121094 C 199.605469 67.136719 200.4375 71.050781 201.929688 74.640625 C 202.171875 74.859375 202.34375 75.179688 202.320312 75.492188 L 202.320312 75.539062 C 204.75 80.886719 208.703125 85.476562 214.054688 88.574219 C 216.160156 89.792969 218.351562 90.835938 220.621094 91.667969 C 219.433594 88.171875 218.992188 84.109375 218.980469 82.09375 C 218.933594 74.742188 220.265625 65.332031 226.097656 60.152344 C 226.53125 59.761719 227.308594 60.273438 226.941406 60.804688 C 223.085938 66.414062 221.597656 74.046875 221.792969 80.777344 C 221.898438 84.445312 222.246094 88.632812 224.199219 91.863281 C 224.4375 92.253906 224.71875 92.617188 225.015625 92.96875 C 226.242188 93.242188 227.488281 93.453125 228.757812 93.582031 C 232.367188 93.9375 236.164062 92.96875 239.601562 93.765625 C 238.832031 88.046875 240.996094 82.234375 247.597656 77.515625 C 247.847656 77.34375 248.21875 77.699219 248.035156 77.953125 C 241.316406 86.835938 243.386719 96.882812 251.632812 104.003906 C 255.257812 107.136719 259.917969 110.289062 264.703125 111.246094 C 265.359375 111.375 266.015625 111.453125 266.667969 111.507812 C 263.511719 107.734375 262.59375 101.535156 262.988281 96.875 C 263.71875 88.277344 268.902344 79.460938 274.207031 72.894531 C 274.472656 72.566406 275.023438 72.921875 274.90625 73.300781 C 272.898438 79.648438 268.929688 85.308594 267.511719 91.859375 C 266.460938 96.730469 266.195312 102.4375 268.90625 106.898438 C 269.890625 108.523438 270.972656 110.007812 271.992188 111.550781 C 273.703125 111.507812 275.414062 111.492188 277.148438 111.75 C 277.183594 111.75 277.207031 111.761719 277.230469 111.773438 C 278 107.574219 280.769531 103.339844 282.691406 100.152344 C 282.796875 99.980469 283.039062 100.09375 283.003906 100.277344 C 281.875 106.46875 280.496094 112.601562 284.257812 118.183594 C 286.871094 122.070312 290.390625 125.394531 294.160156 128.183594 C 291.34375 121.601562 292.332031 111.457031 294.296875 106.46875 C 294.417969 106.15625 294.859375 106.117188 294.96875 106.46875 C 296.386719 111.003906 295.613281 116 296.472656 120.667969 C 297.25 124.886719 299.851562 128.414062 300.597656 132.492188 C 302.601562 133.71875 304.640625 134.882812 306.710938 136.019531 C 309.058594 137.308594 312.0625 138.042969 314.726562 139.125 C 313.9375 131.773438 317.707031 120.625 319.675781 117.503906 C 326.933594 105.984375 342.027344 102.5 354.726562 106.320312 C 358.601562 107.480469 361.636719 109.265625 363.949219 111.507812 C 363.742188 110.519531 363.492188 109.507812 362.960938 108.484375 C 361.257812 105.160156 359.117188 102.246094 356.738281 99.378906 C 355.992188 98.484375 355.226562 97.59375 354.445312 96.714844 C 353.246094 96.125 352.039062 95.535156 350.734375 95.140625 C 347.152344 94.066406 343.476562 93.304688 339.722656 93.210938 C 331.832031 93.011719 323.585938 94.257812 316.367188 97.554688 C 315.332031 98.03125 314.453125 96.617188 315.460938 96.003906 C 322.804688 91.535156 331.089844 89.230469 339.722656 89.535156 C 342.007812 89.613281 344.976562 89.777344 348.003906 90.238281 C 345.769531 88.285156 343.390625 86.5 340.820312 85.019531 C 328.566406 77.988281 316.695312 79.773438 303.261719 79.96875 C 302.777344 79.980469 302.683594 79.382812 303.03125 79.128906 C 307.917969 75.628906 313.589844 73.914062 319.421875 73.628906 C 319.386719 73.582031 319.375 73.523438 319.351562 73.464844 C 317.867188 68.910156 317.59375 65.640625 313.890625 62.027344 C 311.53125 59.703125 309.066406 57.308594 306.320312 55.445312 C 304.660156 54.3125 302.941406 53.265625 301.183594 52.300781 C 295.671875 52.457031 290.542969 49.34375 284.832031 50.792969 C 279.574219 52.125 274.648438 54.632812 269.808594 57.042969 C 268.714844 57.585938 267.777344 56.027344 268.84375 55.390625 C 274.496094 52.035156 279.476562 47.65625 286.292969 46.9375 C 286.617188 46.902344 286.949219 46.894531 287.277344 46.871094 C 275.125 43.863281 260.585938 43.863281 250.609375 52.167969 C 250.300781 52.421875 249.78125 52.097656 250.023438 51.71875 C 252.164062 48.382812 254.796875 45.828125 257.777344 43.9375 C 256.429688 42.488281 255.738281 40.785156 254.417969 39.015625 C 252.070312 35.863281 249.214844 33.8125 245.535156 32.464844 C 243.429688 31.695312 241.28125 31.027344 239.113281 30.425781 C 238.882812 30.417969 238.648438 30.421875 238.421875 30.4375 C 236.042969 30.601562 233.675781 31.105469 231.417969 31.878906 C 228.90625 32.734375 225.738281 33.925781 223.835938 35.890625 C 222.734375 37.03125 222.363281 38.757812 221.191406 39.714844 C 221.082031 39.804688 220.9375 39.816406 220.828125 39.714844 C 217.171875 36.320312 227.042969 30.117188 229.1875 29.164062 C 229.582031 28.992188 230.082031 28.777344 230.652344 28.550781 C 230.070312 28.453125 229.496094 28.335938 228.914062 28.253906 C 223.058594 27.402344 216.421875 26.65625 210.601562 28.082031 C 205.160156 29.417969 197.210938 33.6875 196.464844 39.820312 C 196.40625 40.335938 195.714844 40.476562 195.53125 39.945312 C 194.449219 36.621094 196.0625 32.617188 198.535156 29.429688 C 196.78125 29.140625 194.996094 28.601562 193.222656 28.140625 C 190.394531 30.1875 188.386719 33.285156 185.789062 35.941406 C 185.339844 36.402344 184.625 35.925781 184.753906 35.339844 C 185.328125 32.785156 186.914062 29.769531 189.074219 27.355469 C 188.800781 27.332031 188.523438 27.304688 188.25 27.300781 C 184.429688 27.21875 180.625 27.609375 176.917969 28.589844 C 168.441406 30.84375 162.035156 34.132812 157.535156 41.761719 C 157.363281 42.0625 156.824219 42.039062 156.753906 41.660156 C 156.328125 39.324219 156.707031 37.148438 157.640625 35.183594 C 146.652344 32.476562 134.53125 36.722656 129.15625 47.503906 C 126.925781 51.992188 126.617188 57.261719 130.078125 61.070312 Z M 83.457031 295.828125 C 82.640625 294.296875 81.925781 292.59375 81.339844 290.730469 C 79.40625 284.6875 78.613281 277.046875 74.207031 272.191406 C 68.710938 266.136719 58.539062 263.675781 54.515625 272.964844 C 51.660156 279.546875 52.285156 286.851562 51.5 293.824219 C 50.972656 298.496094 50.605469 302.859375 50.753906 307.265625 C 55.609375 305.054688 60.796875 303.527344 65.878906 301.9375 C 71.859375 300.074219 77.683594 298.023438 83.457031 295.828125 Z M 139.617188 272.707031 C 138.417969 269.742188 137.542969 266.65625 137.222656 263.378906 C 136.660156 257.53125 138.1875 246.371094 133.621094 241.894531 C 128.167969 236.566406 112.984375 241.675781 110.039062 249.144531 C 109.292969 260.339844 115.285156 270.902344 117.691406 281.71875 C 124.984375 278.683594 132.296875 275.703125 139.617188 272.707031 Z M 169.671875 260.15625 C 169.570312 259.730469 169.453125 259.316406 169.351562 258.890625 C 166.820312 248.578125 165.84375 237.050781 171.355469 227.453125 C 176.875 217.832031 186.410156 211.410156 196.1875 206.429688 C 196.347656 206.28125 196.554688 206.140625 196.785156 206.027344 C 207.023438 201.089844 217.765625 197.316406 228.292969 193.082031 C 239.648438 188.523438 250.125 182.597656 261.167969 177.417969 C 272.535156 172.09375 284.1875 167.464844 295.894531 162.96875 C 303.695312 159.964844 318.625 156.855469 321.410156 147.582031 L 321.410156 147.570312 C 321.203125 147.007812 320.867188 146.351562 320.492188 145.695312 C 320.132812 145.785156 319.730469 145.796875 319.292969 145.707031 C 318.84375 145.613281 318.441406 145.464844 318.074219 145.292969 C 313.164062 146.960938 306.8125 142.609375 302.660156 140.34375 C 297.265625 137.398438 291.960938 134.070312 287.335938 130 C 283.136719 126.304688 278.960938 121.976562 277.363281 116.476562 C 277.339844 116.398438 277.316406 116.328125 277.304688 116.246094 C 277.261719 116.28125 277.203125 116.304688 277.144531 116.328125 C 263.652344 121.5625 245.433594 110.699219 240.648438 97.871094 C 236.851562 101.265625 229.003906 99.664062 224.542969 98.722656 C 218.261719 97.386719 212.507812 94.785156 207.390625 90.898438 C 203.789062 88.171875 200.859375 84.796875 198.949219 81.046875 C 196.210938 83.003906 192.34375 83.921875 189.332031 84.210938 C 182.808594 84.820312 176.125 83.886719 170.199219 80.964844 C 165.140625 78.46875 160.515625 74.28125 158.066406 69.277344 C 153.808594 72.957031 146 73.0625 140.832031 72.472656 C 136.644531 72 132.207031 70.21875 128.789062 67.574219 C 91.691406 104.683594 61.40625 148.398438 38.515625 195.589844 C 31.703125 209.625 25.492188 223.953125 20.121094 238.613281 C 18.9375 241.824219 17.832031 245.042969 16.683594 248.265625 C 15.601562 251.269531 14.335938 254.191406 13.152344 257.152344 C 11.484375 261.28125 9.859375 265.457031 10.078125 270.003906 C 10.148438 271.453125 10.226562 272.871094 10.238281 274.308594 L 10.238281 274.320312 C 10.449219 274.628906 10.574219 275 10.621094 275.425781 C 11.414062 282.972656 6.007812 289.40625 6.882812 296.863281 C 7.746094 304.261719 11.621094 310.738281 14.496094 317.480469 C 18.636719 327.148438 19.652344 344.660156 31.832031 348.066406 C 39.148438 350.105469 46.886719 348.078125 49.199219 340.082031 C 51.226562 333.085938 49.269531 326.835938 47.714844 319.96875 C 47.28125 318.023438 46.933594 316.054688 46.671875 314.085938 C 46.671875 314.074219 46.671875 314.074219 46.671875 314.0625 C 45.082031 302.695312 46.117188 290.96875 47.808594 279.625 C 49.453125 268.679688 57.042969 258.589844 69.296875 262.730469 C 80.996094 266.703125 82.546875 279.449219 86 289.4375 C 87.34375 293.351562 89.183594 296.652344 91.933594 298.816406 C 94.085938 300.507812 96.789062 301.507812 100.25 301.566406 C 104.183594 301.625 109.949219 301.496094 112.214844 297.539062 C 113.765625 294.824219 114.089844 291.601562 113.777344 288.277344 C 113.285156 283.050781 111.226562 277.574219 109.867188 273.328125 C 107.726562 266.585938 105.484375 260.257812 105.152344 253.398438 C 104.910156 253.050781 104.75 252.628906 104.714844 252.121094 C 104.609375 250.648438 104.839844 249.210938 105.324219 247.851562 C 105.324219 247.839844 105.335938 247.828125 105.335938 247.816406 C 105.40625 247.472656 105.53125 247.183594 105.691406 246.929688 C 105.703125 246.929688 105.703125 246.917969 105.703125 246.917969 C 106.554688 245.066406 107.867188 243.421875 109.441406 242.097656 C 115.480469 237.023438 125.707031 232.617188 133.542969 236.078125 C 144.664062 241.003906 140.042969 258.070312 142.8125 267.296875 C 143.757812 270.417969 145.113281 273.339844 146.632812 276.171875 C 149.164062 280.898438 152.132812 285.410156 154.363281 290.3125 C 155.652344 293.132812 156.398438 296.226562 157.320312 299.164062 C 159.640625 306.640625 161.933594 317.148438 168.167969 322.472656 C 171.871094 325.652344 175.550781 322.878906 178.183594 319.644531 C 183.234375 313.441406 185.351562 305.871094 183.789062 297.953125 C 181.128906 284.597656 173.203125 273.183594 169.671875 260.15625 Z M 362.898438 116.914062 C 362.765625 116.707031 362.613281 116.511719 362.464844 116.328125 C 361.40625 114.972656 360.039062 113.808594 358.3125 112.910156 C 349.335938 108.273438 334.210938 108.066406 326.863281 115.984375 C 323.144531 120 320.820312 125.304688 320.269531 130.769531 C 320.226562 131.1875 320.097656 132.3125 319.972656 133.679688 C 320.167969 133.992188 320.292969 134.339844 320.339844 134.753906 C 320.777344 138.539062 324.816406 142.449219 326.101562 146.417969 C 326.253906 146.707031 326.34375 147.054688 326.355469 147.421875 L 326.355469 147.480469 C 326.609375 148.8125 326.496094 150.160156 325.757812 151.507812 C 325.433594 152.117188 324.972656 152.460938 324.46875 152.613281 C 321.121094 158.078125 314.484375 160.941406 308.5 163.253906 C 295.34375 168.351562 282.058594 173.207031 269.195312 179.019531 C 257.644531 184.234375 246.730469 190.664062 235.019531 195.523438 C 224.425781 199.917969 213.542969 203.679688 203.085938 208.398438 C 203.054688 208.417969 203.007812 208.441406 202.960938 208.464844 C 199.808594 209.960938 196.785156 211.617188 193.757812 213.355469 C 182.875 219.617188 172.675781 228.535156 172.167969 242 C 171.949219 247.695312 172.847656 253.066406 174.332031 258.292969 C 176.691406 257.289062 179.035156 256.277344 181.382812 255.253906 C 209.863281 242.828125 237.679688 228.742188 265.539062 215.015625 C 282.863281 206.488281 300.160156 197.902344 317.28125 188.960938 C 323.457031 185.738281 329.632812 182.496094 335.695312 179.03125 C 337.421875 178.054688 339.378906 177.054688 341.171875 175.945312 C 341.285156 175.636719 341.492188 175.328125 341.804688 175.050781 C 351.132812 166.742188 359.820312 157.457031 363.039062 145.039062 C 365.097656 137.167969 368.101562 124.394531 362.898438 116.914062 Z M 203.46875 113.027344 C 203.734375 112.832031 204.078125 112.703125 204.515625 112.726562 C 204.988281 112.738281 205.460938 112.761719 205.953125 112.785156 C 206.148438 112.761719 206.355469 112.738281 206.550781 112.726562 C 206.851562 112.691406 207.117188 112.75 207.335938 112.84375 C 215.292969 113.175781 224.589844 114.015625 230.109375 120.148438 C 236.011719 126.6875 238.402344 135.03125 235.011719 143.519531 C 227.800781 161.53125 206.609375 170.621094 187.976562 169.089844 C 172.375 167.8125 155.972656 157.363281 161.539062 139.457031 C 167.210938 121.253906 186.179688 114.960938 203.46875 113.027344 Z M 165.265625 139.113281 C 160.089844 155.71875 174.367188 165.554688 189.675781 165.71875 C 204.90625 165.867188 223.667969 159.984375 230.59375 145.085938 C 234.433594 136.859375 234.042969 126.144531 225.519531 120.769531 C 219.582031 117.019531 212.75 116.511719 205.929688 116.238281 C 190.675781 117.59375 170.445312 122.472656 165.265625 139.113281 Z M 270.96875 133.371094 C 271.507812 133.027344 272.027344 133.027344 272.464844 133.234375 C 273.128906 133.039062 273.890625 133.210938 274.351562 133.980469 C 276.492188 137.617188 276.398438 141.691406 276.132812 145.785156 C 275.902344 149.46875 276.351562 153.96875 274.902344 157.46875 C 272.359375 163.613281 265.503906 164.660156 259.753906 162.253906 C 245.8125 156.410156 264.574219 137.457031 270.96875 133.371094 Z M 259.476562 158.042969 C 262.078125 160.101562 268.058594 161.390625 270.53125 158.332031 C 272.152344 156.328125 272.28125 153.625 272.417969 151.183594 C 272.660156 146.730469 273.730469 141.160156 271.933594 136.890625 C 267.160156 140.4375 253.792969 153.542969 259.476562 158.042969 Z M 238.574219 168.753906 C 238.976562 168.742188 239.394531 168.914062 239.738281 169.351562 C 243.359375 173.933594 241.300781 180.757812 235.953125 183.070312 C 231.605469 184.957031 226.511719 184.496094 222.609375 181.757812 C 219.261719 179.421875 217.914062 174.980469 221.078125 171.828125 C 225.542969 167.375 232.835938 166.523438 238.574219 168.753906 Z M 224.933594 173.09375 C 222.574219 174.714844 221.882812 176.867188 224.347656 178.777344 C 226.542969 180.480469 229.914062 181.289062 232.628906 180.59375 C 236.136719 179.710938 240.039062 175.648438 237.449219 172.023438 C 233.414062 170.515625 228.570312 170.597656 224.933594 173.09375 Z M 163.507812 205.796875 C 159.894531 210.546875 153.660156 213.332031 147.691406 212.757812 C 142.550781 212.277344 139.363281 208.167969 141.515625 203.171875 C 144.804688 195.519531 153.132812 190.214844 161.378906 190.273438 C 161.574219 190.25 161.804688 190.261719 162.035156 190.320312 L 162.066406 190.320312 C 162.089844 190.332031 162.113281 190.332031 162.125 190.332031 C 169.464844 192.449219 166.957031 201.238281 163.507812 205.796875 Z M 161.378906 193.726562 C 154.765625 193.703125 148.046875 197.71875 145.046875 203.714844 C 143.320312 207.167969 145 209.351562 148.773438 209.386719 C 152.613281 209.421875 156.777344 208.007812 159.492188 205.1875 C 161.710938 202.886719 166.3125 195.359375 161.378906 193.726562 Z M 127.191406 189.410156 C 128.734375 196.5 126.074219 205.277344 120.601562 210.089844 C 114.574219 215.390625 106.808594 217.867188 98.960938 218.972656 C 88.21875 220.480469 77.566406 222.839844 66.683594 221.214844 C 66.132812 221.136719 65.777344 220.847656 65.59375 220.488281 C 51.144531 215.074219 53.492188 196.175781 63.511719 186.960938 C 70.34375 180.675781 79.1875 177.421875 88.277344 176.015625 C 96.121094 174.796875 105.300781 173.359375 113.089844 175.535156 C 120.242188 177.523438 125.570312 181.964844 127.191406 189.410156 Z M 110.847656 178.570312 C 98.375 176.441406 80.984375 178.742188 70.390625 185.898438 C 60.578125 192.519531 51.074219 212.425781 67.605469 217.542969 C 67.90625 217.636719 68.144531 217.796875 68.332031 217.984375 C 77.832031 219.226562 87.21875 217.164062 96.605469 215.839844 C 102.539062 215.011719 108.914062 213.828125 114.089844 210.640625 C 126.996094 202.675781 128.203125 181.527344 110.847656 178.570312 Z M 127.492188 160.679688 C 114.261719 167.59375 96.480469 168.699219 86.964844 155.015625 C 74.1875 136.640625 92.039062 115.351562 108.097656 106.492188 C 108.613281 106.214844 109.121094 106.214844 109.535156 106.386719 C 119.4375 102.714844 131.21875 102.039062 140.007812 108.78125 C 145.65625 113.109375 150.300781 118.734375 150.820312 126.121094 C 151.867188 140.863281 139.777344 154.234375 127.492188 160.679688 Z M 147.4375 128.941406 C 147.566406 122.820312 145.011719 117.320312 140.292969 113.382812 C 131 105.605469 119.164062 105.753906 108.476562 110.496094 C 108.269531 110.585938 108.0625 110.632812 107.855469 110.644531 C 93.730469 119.4375 76.347656 140.503906 91.886719 155.511719 C 101.667969 164.945312 115.609375 163.632812 126.71875 157.144531 C 136.453125 151.472656 147.195312 141.070312 147.4375 128.941406 Z M 146.746094 94.578125 C 144.976562 87.929688 150.648438 83.0625 156.847656 82.5 C 156.972656 82.464844 157.109375 82.453125 157.25 82.453125 C 157.398438 82.441406 157.535156 82.453125 157.664062 82.476562 C 164.242188 82.683594 172.226562 87.988281 171.523438 95.246094 C 170.960938 101.015625 164.632812 103.730469 159.515625 103.105469 C 154.570312 102.496094 148.183594 99.964844 146.746094 94.578125 Z M 151.347656 95.800781 C 153.625 98.160156 156.972656 99.632812 160.277344 99.714844 C 163.40625 99.78125 168.394531 98.527344 168.15625 94.328125 C 167.878906 89.265625 161.839844 85.890625 157.25 85.902344 C 152.453125 86.191406 147.046875 91.359375 151.347656 95.800781 Z M 188.019531 95.535156 C 189.550781 91.589844 193.566406 89.058594 197.714844 88.910156 C 197.980469 88.910156 198.210938 88.941406 198.40625 89.023438 C 198.8125 89.011719 199.222656 89.113281 199.617188 89.414062 C 201.699219 91.070312 204.238281 92.289062 205.449219 94.789062 C 206.34375 96.617188 205.929688 99.195312 204.769531 100.828125 C 202.503906 104.015625 197.246094 107.285156 193.171875 105.570312 C 188.976562 103.796875 186.226562 100.160156 188.019531 95.535156 Z M 194.554688 102.382812 C 197.222656 102.878906 200.914062 101.070312 202.078125 98.597656 C 203.46875 95.628906 200.066406 93.878906 197.84375 92.347656 C 197.796875 92.347656 197.765625 92.359375 197.714844 92.359375 C 195.105469 92.464844 192.503906 93.992188 191.378906 96.410156 C 190.171875 99.011719 191.644531 101.839844 194.554688 102.382812 Z M 55.183594 252.007812 C 50.570312 256.785156 43.207031 260.066406 36.5 259.246094 C 29.828125 258.417969 28.601562 252.34375 31.324219 246.96875 C 35.007812 239.730469 44.058594 230.9375 52.941406 231.792969 C 53.238281 231.6875 53.59375 231.675781 54.007812 231.828125 C 54.160156 231.882812 54.273438 231.964844 54.425781 232.03125 C 54.621094 232.070312 54.828125 232.113281 55.023438 232.171875 C 55.515625 232.308594 55.839844 232.585938 56.035156 232.929688 C 61.890625 237.105469 59.808594 247.222656 55.183594 252.007812 Z M 53.6875 235.417969 C 46.359375 233.78125 37.777344 241.882812 34.71875 247.898438 C 32.648438 251.984375 32.761719 255.988281 38.238281 255.921875 C 42.792969 255.851562 47.761719 254.070312 51.203125 251.042969 C 54.664062 247.992188 59.519531 238.324219 53.6875 235.417969 Z M 62.003906 164.070312 C 64.0625 159.320312 69.148438 154.71875 74.621094 155.234375 C 74.796875 155.257812 74.945312 155.292969 75.082031 155.347656 C 75.425781 155.28125 75.796875 155.304688 76.175781 155.476562 C 87.046875 160.285156 77.484375 175.761719 68.066406 174.921875 C 62.417969 174.417969 59.851562 169.007812 62.003906 164.070312 Z M 69.125 171.519531 C 74.667969 171.160156 81.292969 162.070312 74.910156 158.683594 C 74.816406 158.699219 74.726562 158.699219 74.621094 158.683594 C 70.804688 158.332031 67.144531 161.402344 65.511719 164.683594 C 63.925781 167.847656 64.84375 171.792969 69.125 171.519531 Z M 158.203125 174.53125 C 155.789062 177.800781 151.28125 180.515625 147.09375 179.976562 C 142.167969 179.339844 139.59375 173.820312 142.652344 169.746094 C 145.242188 166.304688 151.304688 162.277344 155.363281 165.625 C 159.5625 166.972656 160.929688 170.835938 158.203125 174.53125 Z M 154.074219 168.835938 C 154.0625 168.824219 154.050781 168.824219 154.039062 168.824219 C 153.972656 168.800781 153.890625 168.765625 153.820312 168.730469 C 153.75 168.710938 153.683594 168.675781 153.613281 168.640625 C 153.613281 168.640625 153.613281 168.640625 153.613281 168.628906 C 153.488281 168.558594 153.375 168.46875 153.28125 168.363281 C 150.992188 166.1875 146.21875 170.226562 145.171875 172.207031 C 143.816406 174.785156 146.136719 176.855469 148.703125 176.570312 C 151.554688 176.246094 160.113281 170.480469 154.074219 168.835938 Z M 154.074219 168.835938 " fill-opacity="1" fill-rule="nonzero"/></svg>